<?xml version="1.0" encoding="utf-8"?>
<svg viewBox="130.842 19.978 43.569 88.374" xmlns="http://www.w3.org/2000/svg">
  <path d="M 173.69 43.256 C 174.171 43.531 174.411 43.788 174.411 44.029 C 174.411 44.269 173.879 44.595 172.815 45.007 C 171.75 45.419 170.978 45.745 170.497 45.986 C 170.016 46.226 169.604 46.586 169.261 47.067 C 164.18 54.002 159.648 59.856 155.665 64.629 C 151.682 69.401 146.532 75.117 140.215 81.778 L 167.201 76.937 L 167.407 78.379 C 156.077 81.469 148.61 83.581 145.005 84.714 C 141.4 85.847 139.305 86.636 138.722 87.083 C 138.138 87.529 137.726 87.752 137.486 87.752 C 137.245 87.752 137.022 87.615 136.816 87.34 L 132.902 81.572 C 134.481 81.229 136.301 80.456 138.361 79.255 C 140.421 78.053 143.751 74.499 148.352 68.594 C 152.953 62.689 156.317 57.951 158.446 54.38 C 151.236 55.547 146.189 56.543 143.305 57.367 C 140.421 58.191 138.447 58.981 137.383 59.736 C 136.318 60.491 135.683 60.869 135.477 60.869 C 135.271 60.869 135.031 60.663 134.756 60.251 L 130.842 54.586 C 132.696 54.105 134.344 53.281 135.786 52.114 C 137.228 50.947 139.271 48.578 141.915 45.007 C 144.558 41.436 147.236 37.248 149.949 32.441 C 152.661 27.634 154.601 23.48 155.768 19.978 L 162.875 24.304 C 163.562 24.716 163.905 25.008 163.905 25.18 C 163.905 25.351 163.27 25.677 162 26.158 C 160.729 26.639 159.991 26.948 159.785 27.085 C 159.579 27.222 159.236 27.634 158.755 28.321 L 147.734 42.123 L 137.022 54.689 L 159.888 52.114 C 162.085 48.475 164.42 44.011 166.892 38.724 L 173.69 43.256 Z M 171.939 93.314 L 149.794 102.275 C 146.155 103.717 143.614 104.816 142.172 105.571 C 140.73 106.326 139.734 106.979 139.185 107.528 C 138.636 108.077 138.241 108.352 138.001 108.352 C 137.76 108.352 137.537 108.215 137.331 107.94 L 133.314 102.584 L 171.424 91.769 L 171.939 93.314 Z" style="fill: rgb(51, 51, 51); white-space: pre;"/>
</svg>
