<?xml version="1.0" encoding="utf-8"?>
<svg viewBox="174.514 26.364 49.028 85.078" xmlns="http://www.w3.org/2000/svg">
  <path d="M 221.07 85.692 C 221.001 88.37 220.967 90.894 220.967 93.263 C 220.967 95.632 221.087 97.537 221.328 98.979 C 221.568 100.421 221.997 101.314 222.615 101.657 C 223.233 102 223.542 102.378 223.542 102.79 C 223.542 103.202 223.027 104.284 221.997 106.035 C 220.967 107.786 219.439 109.125 217.414 110.052 C 215.388 110.979 211.491 111.442 205.723 111.442 L 189.037 111.442 C 185.329 111.442 182.685 111.202 181.106 110.721 C 179.527 110.24 178.48 109.313 177.965 107.94 C 177.45 106.567 177.192 104.301 177.192 101.142 L 177.192 66.74 C 177.192 61.727 177.089 57.573 176.883 54.277 L 182.342 58.706 L 210.667 58.706 L 210.667 32.75 L 184.299 32.75 C 181.621 32.75 179.321 33.128 177.398 33.883 L 174.514 30.072 C 177.81 30.347 180.316 30.484 182.033 30.484 L 208.916 30.484 L 212.315 26.364 L 218.804 31.514 C 219.216 31.789 219.422 32.063 219.422 32.338 C 219.422 32.613 219.216 32.853 218.804 33.059 L 215.405 34.913 L 215.405 54.483 C 215.405 57.573 215.474 59.839 215.611 61.281 L 215.92 65.195 C 215.92 66.225 215.251 66.998 213.912 67.513 C 212.573 68.028 211.697 68.285 211.285 68.285 C 210.873 68.285 210.667 67.839 210.667 66.946 L 210.667 60.972 L 181.827 60.972 L 181.827 101.245 C 181.827 103.923 182.497 105.588 183.836 106.241 C 185.175 106.893 188.968 107.219 195.217 107.219 C 203.251 107.219 208.624 106.893 211.337 106.241 C 214.049 105.588 215.886 103.94 216.847 101.297 C 217.808 98.653 218.564 93.451 219.113 85.692 L 221.07 85.692 Z" style="fill: rgb(51, 51, 51); white-space: pre;"/>
</svg>