<?xml version="1.0" encoding="utf-8"?>
<svg viewBox="81.331 52.893 113.708 74.152" xmlns="http://www.w3.org/2000/svg">
  <path d="M 143.827 57.977 C 143.827 58.804 143.29 59.258 142.215 59.341 L 138.123 59.465 C 151.35 76.908 170.322 88.853 195.039 95.301 L 194.791 97.161 C 193.799 96.996 192.559 96.913 191.071 96.913 C 188.426 96.913 186.71 97.409 185.925 98.401 C 185.14 99.393 184.54 99.889 184.127 99.889 C 182.887 99.889 178.588 97.636 171.231 93.131 C 163.874 88.626 157.033 83.397 150.709 77.445 C 144.385 71.493 139.528 65.458 136.139 59.341 C 124.4 79.181 106.462 94.309 82.323 104.725 L 81.331 103.237 C 91.251 98.69 101.295 91.54 111.463 81.785 C 121.631 72.03 128.286 62.4 131.427 52.893 C 139.694 54.877 143.827 56.572 143.827 57.977 Z M 124.607 79.305 L 125.475 78.189 C 136.635 84.306 142.215 89.514 142.215 93.813 C 142.215 96.954 141.099 98.525 138.867 98.525 C 137.875 98.525 137.048 97.781 136.387 96.293 C 132.502 87.944 128.575 82.281 124.607 79.305 Z M 156.475 102.617 L 159.327 98.897 C 159.575 98.566 159.823 98.401 160.071 98.401 C 160.815 98.401 162.179 99.331 164.163 101.191 C 166.147 103.051 167.139 104.291 167.139 104.911 C 167.139 105.531 166.808 105.924 166.147 106.089 C 163.171 106.668 161.6 107.164 161.435 107.577 L 156.475 117.993 C 155.896 119.068 154.822 121.424 153.251 125.061 C 152.755 126.384 151.887 127.045 150.647 127.045 C 148.415 127.045 147.299 126.59 147.299 125.681 C 147.299 125.516 147.423 125.185 147.671 124.689 L 151.887 116.753 L 157.095 105.469 L 113.819 105.469 C 113.654 105.469 113.24 105.51 112.579 105.593 C 111.918 105.676 110.326 105.717 107.805 105.717 C 105.284 105.717 103.072 106.006 101.171 106.585 L 98.691 101.129 C 101.254 101.956 104.271 102.41 107.743 102.493 L 116.547 102.617 L 156.475 102.617 Z" style="fill: rgb(51, 51, 51); white-space: pre;"/>
</svg>