<?xml version="1.0" encoding="utf-8"?>
<svg viewBox="199.908 161.245 122.094 160.757" width="122.094" height="160.757" xmlns="http://www.w3.org/2000/svg">
  <path d="M 237.99 288.281 L 237.99 240.025 L 275.781 240.025 L 275.781 288.281 L 237.99 288.281 Z M 275.781 186.536 L 275.781 231.885 L 237.99 231.885 L 237.99 186.536 L 275.781 186.536 Z M 314.444 190.024 C 318.514 189.152 320.84 187.408 322.002 185.954 L 290.025 161.245 L 273.456 178.396 L 238.281 178.396 L 199.908 164.152 L 199.908 322.002 L 206.885 322.002 C 226.362 322.002 237.99 313.572 237.99 310.955 L 237.99 296.42 L 275.781 296.42 L 275.781 315.316 L 282.467 315.316 C 297.002 315.316 314.444 304.56 314.444 301.362 L 314.444 190.024 Z" style="white-space: pre; fill: rgb(51, 51, 51);"/>
</svg>