<?xml version="1.0" encoding="utf-8"?>
<svg viewBox="132.68 107.334 250.292 276.746" width="250.292" height="276.746" xmlns="http://www.w3.org/2000/svg">
  <path d="M 159.133 109.078 C 169.017 119.543 179.192 134.078 185.878 149.194 L 132.68 144.253 L 132.68 384.08 L 139.947 384.08 C 156.226 384.08 173.378 375.068 173.378 371.289 L 173.378 159.078 C 182.68 157.625 185.296 154.427 186.169 150.067 C 188.494 155.008 190.238 159.66 191.401 164.602 C 229.774 188.439 258.262 114.601 161.168 107.334 L 159.133 109.078 Z M 345.763 114.31 L 327.739 134.95 L 231.227 134.95 L 233.843 143.09 L 330.646 143.09 L 330.646 333.208 C 330.646 336.987 329.193 339.312 324.251 339.312 C 317.565 339.312 283.844 337.277 283.844 337.277 L 283.844 341.056 C 300.414 343.963 306.809 348.324 312.042 354.719 C 317.274 360.533 319.018 370.126 319.891 383.499 C 365.24 379.429 371.344 364.603 371.344 337.568 L 371.344 149.485 C 377.449 148.322 380.938 145.706 382.972 143.38 L 345.763 114.31 Z" style="white-space: pre; fill: rgb(51, 51, 51);"/>
</svg>