<?xml version="1.0" encoding="utf-8"?>
<svg viewBox="84.555 121.465 104.904 40.548" xmlns="http://www.w3.org/2000/svg">
  <path d="M 98.071 130.021 L 100.055 130.145 C 99.559 149.241 95.302 158.789 87.283 158.789 C 85.464 158.789 84.555 158.004 84.555 156.433 C 84.555 155.524 85.836 153.746 88.399 151.101 C 93.855 145.397 97.079 138.37 98.071 130.021 Z M 129.939 123.077 L 130.807 121.465 C 137.172 124.441 141.492 126.88 143.765 128.781 C 146.038 130.682 147.175 132.997 147.175 135.725 C 147.175 138.453 146.307 139.817 144.571 139.817 C 143.496 139.817 141.802 137.668 139.487 133.369 C 137.172 129.07 133.99 125.64 129.939 123.077 Z M 171.727 132.501 L 173.091 130.889 C 184.003 139.238 189.459 145.645 189.459 150.109 C 189.459 153.498 188.178 155.193 185.615 155.193 C 184.706 155.193 183.445 152.568 181.833 147.319 C 180.221 142.07 176.852 137.13 171.727 132.501 Z M 146.927 157.053 C 147.34 157.053 147.754 157.053 148.167 157.053 C 152.466 157.053 155.049 156.35 155.917 154.945 C 156.785 153.54 158.294 147.009 160.443 135.353 L 162.179 135.353 C 162.096 135.684 162.055 136.014 162.055 136.345 C 161.807 139.156 161.683 143.413 161.683 149.117 C 161.683 151.184 161.745 152.651 161.869 153.519 C 161.993 154.387 162.696 155.09 163.977 155.627 C 165.258 156.164 165.899 156.805 165.899 157.549 C 165.899 160.525 160.236 162.013 148.911 162.013 C 143.951 162.013 139.528 161.972 135.643 161.889 C 131.758 161.806 128.492 161.765 125.847 161.765 C 121.466 161.765 118.407 161.269 116.671 160.277 C 114.935 159.285 114.067 157.26 114.067 154.201 L 114.067 141.305 C 113.819 136.097 113.695 131.426 113.695 127.293 L 113.199 122.829 C 120.308 124.896 123.863 126.342 123.863 127.169 C 123.863 127.665 123.119 128.202 121.631 128.781 C 120.143 129.36 119.399 130.021 119.399 130.765 L 119.399 153.085 C 119.399 154.821 119.916 155.916 120.949 156.371 C 121.982 156.826 124.359 157.053 128.079 157.053 C 137.751 157.053 144.034 157.053 146.927 157.053 Z" style="fill: rgb(51, 51, 51); white-space: pre;"/>
</svg>