<?xml version="1.0" encoding="utf-8"?>
<svg viewBox="196.13 70.632 47.953 104.772" xmlns="http://www.w3.org/2000/svg">
  <path d="M 244.083 167.662 C 244.083 170.076 241.815 171.97 237.278 173.344 C 232.741 174.717 226.809 175.404 219.482 175.404 C 219.482 175.404 207.411 174.821 204.747 173.656 C 200.335 171.741 198.128 167.745 198.128 161.668 C 198.045 161.585 197.941 155.632 197.816 143.81 C 197.692 131.989 197.629 121.957 197.629 113.715 C 197.629 105.473 197.629 96.565 197.629 86.991 C 197.629 83.411 197.379 79.623 196.879 75.627 C 196.713 74.295 196.464 72.63 196.13 70.632 C 197.546 70.632 200.022 71.131 203.56 72.13 C 207.099 73.129 208.868 74.087 208.868 75.002 C 208.868 75.585 208.327 76.272 207.244 77.063 C 206.162 77.854 205.08 78.665 203.998 79.498 L 204.122 119.334 C 206.786 118.419 211.615 114.339 218.608 107.096 C 226.018 99.437 229.722 94.109 229.722 91.112 C 230.222 91.112 232.158 92.319 235.529 94.733 C 238.901 97.148 240.587 98.813 240.587 99.728 C 240.587 100.394 239.9 100.914 238.526 101.289 C 237.153 101.664 235.759 102.018 234.343 102.351 L 223.354 109.719 C 220.19 111.8 216.111 114.339 211.116 117.336 C 209.368 118.335 207.036 119.709 204.122 121.457 L 204.122 160.669 C 204.122 163.666 204.622 165.789 205.621 167.038 C 206.62 168.287 208.285 168.911 210.616 168.911 L 215.861 169.036 C 228.016 169.036 234.759 165.997 236.091 159.92 C 236.841 153.01 237.59 146.849 238.339 141.438 C 238.423 141.021 238.548 140.605 238.714 140.189 C 238.714 140.106 238.797 139.939 238.963 139.689 C 239.047 139.772 239.088 139.856 239.088 139.939 C 239.422 140.522 239.588 141.271 239.588 142.187 C 239.588 143.602 239.776 147.203 240.15 152.989 C 240.525 158.775 240.879 162.001 241.211 162.667 C 242.127 163.749 242.752 164.54 243.084 165.04 C 243.75 165.955 244.083 166.829 244.083 167.662 Z" style="fill: rgb(51, 51, 51); white-space: pre;"/>
</svg>