<?xml version="1.0" encoding="utf-8"?>
<svg viewBox="124.825 73.004 67.559 105.772" xmlns="http://www.w3.org/2000/svg">
  <path d="M 192.384 154.05 C 192.384 154.799 189.429 156.381 183.518 158.796 C 176.192 161.793 168.657 164.581 160.915 167.162 C 157.085 168.495 151.965 170.118 145.555 172.033 C 143.474 172.616 140.643 173.448 137.063 174.53 C 136.897 174.613 136.355 175.342 135.439 176.716 C 134.524 178.089 133.733 178.776 133.067 178.776 C 132.401 178.776 130.861 176.778 128.446 172.782 C 126.032 168.786 124.825 166.538 124.825 166.039 C 126.074 166.622 127.822 166.913 130.07 166.913 L 138.062 166.538 C 139.394 166.538 140.06 166.871 140.06 167.537 L 140.185 144.185 C 140.185 140.106 140.102 133.071 139.935 123.081 C 139.769 113.09 139.685 108.053 139.685 107.97 C 139.685 104.723 139.352 101.019 138.686 96.856 C 138.52 95.441 138.146 93.609 137.562 91.362 C 139.061 91.362 141.6 91.903 145.18 92.985 C 148.76 94.067 150.55 95.108 150.55 96.107 C 150.55 96.773 149.676 97.814 147.927 99.229 C 147.012 99.978 146.554 100.436 146.554 100.602 L 146.678 164.79 C 147.428 164.79 150.05 164.332 154.546 163.416 C 159.042 162.5 161.622 161.876 162.288 161.543 L 162.413 142.562 C 162.413 135.235 162.33 128.159 162.163 121.332 C 161.581 97.355 161.289 84.743 161.289 83.494 C 161.289 81.829 161.04 79.582 160.54 76.751 C 160.374 75.835 160.124 74.586 159.791 73.004 C 161.706 73.004 164.183 73.316 167.221 73.941 C 170.26 74.566 171.779 75.377 171.779 76.376 C 171.779 76.959 171.405 77.625 170.655 78.374 C 169.906 79.123 169.115 79.914 168.282 80.747 L 168.282 115.588 L 176.774 115.588 L 181.894 110.093 C 182.477 110.093 184.205 111.092 187.077 113.09 C 189.949 115.088 191.385 116.379 191.385 116.962 C 191.385 117.545 190.594 117.94 189.012 118.148 C 187.43 118.356 185.849 118.46 184.267 118.46 L 168.282 118.46 L 168.282 160.294 C 169.532 160.294 173.528 159.17 180.271 156.922 C 187.015 154.675 190.844 153.551 191.759 153.551 L 192.384 154.05 Z" style="fill: rgb(51, 51, 51); white-space: pre;"/>
</svg>