<?xml version="1.0" encoding="utf-8"?>
<svg viewBox="128.762 261.031 249.536 105.61" width="249.536" height="105.61" xmlns="http://www.w3.org/2000/svg">
  <path d="M 162.154 281.825 C 163.248 297.694 152.578 311.921 142.728 317.119 C 133.152 321.771 126.312 330.252 129.595 341.47 C 133.699 353.235 147.653 356.791 158.05 350.772 C 172.824 342.564 181.853 317.119 165.437 281.551 L 162.154 281.825 Z M 319.747 295.505 L 317.011 295.505 C 310.171 312.468 304.973 323.139 301.143 328.063 C 298.68 331.073 296.765 331.894 292.114 332.167 C 287.463 332.441 278.16 332.441 269.405 332.441 L 238.215 332.441 C 229.186 332.441 227.818 331.347 227.818 327.243 L 227.818 278.268 C 232.195 277.721 234.931 276.079 236.026 273.343 C 242.045 284.287 246.696 296.873 247.791 308.911 C 270.226 326.148 292.661 299.609 274.056 279.089 C 267.886 273.508 267.886 273.356 260.65 269.513 C 253.263 265.956 243.413 262.673 230.827 261.031 L 228.639 262.399 C 230.554 265.135 232.743 267.871 234.384 270.881 L 188.146 267.598 L 188.146 335.451 C 188.146 360.895 196.901 366.641 231.101 366.641 L 264.48 366.641 C 319.474 366.641 334.522 361.169 334.522 344.479 C 334.522 337.366 331.786 332.988 320.568 329.158 L 319.747 295.505 Z M 315.917 285.655 C 329.597 300.156 341.088 322.865 343.003 343.659 C 378.298 370.745 410.035 298.788 318.106 284.014 L 315.917 285.655 Z" style="fill: rgb(51, 51, 51); white-space: pre;"/>
</svg>