<?xml version="1.0" encoding="utf-8"?>
<svg viewBox="70.632 80.99 261.835 167.87" width="261.835" height="167.87" xmlns="http://www.w3.org/2000/svg">
  <path d="M 207.432 237.216 C 200.045 233.659 210.111 241.652 220.838 246.792 C 229.593 249.254 237.528 249.254 244.368 248.16 C 252.849 235.848 264.067 217.79 270.086 207.12 C 276.653 206.299 280.483 204.384 282.672 202.195 L 248.745 172.92 L 231.509 191.251 L 116.597 191.251 L 119.059 198.912 L 230.688 198.912 C 224.395 210.13 215.366 224.904 207.432 237.216 Z M 169.128 80.99 C 155.448 122.03 117.965 170.731 70.632 198.638 L 71.726 201.101 C 110.577 190.704 144.504 170.731 169.949 149.117 C 176.515 157.872 181.166 170.458 181.166 182.496 C 213.998 207.394 248.745 147.749 175.968 143.918 C 189.101 131.606 199.771 119.294 207.158 107.803 C 227.678 149.117 260.784 179.486 306.475 195.629 C 309.211 180.034 315.777 161.976 332.467 155.41 L 332.467 151.032 C 283.766 145.834 237.254 129.144 210.715 104.794 C 221.112 103.426 224.121 101.51 225.216 97.406 L 169.128 80.99 Z" style="fill: rgb(51, 51, 51); white-space: pre;"/>
</svg>