<?xml version="1.0" encoding="utf-8"?>
<svg viewBox="157.757 107.334 164.245 273.839" width="164.245" height="273.839" xmlns="http://www.w3.org/2000/svg">
  <path d="M 279.269 214.311 L 322.002 214.311 L 322.002 304.428 C 307.467 307.335 293.223 309.952 279.269 312.568 L 279.269 214.311 Z M 322.002 307.917 L 322.002 199.776 C 310.956 186.404 297.002 171.579 297.002 171.579 L 279.269 203.556 L 279.269 120.415 C 287.409 119.253 289.444 116.055 290.025 111.985 L 238.862 107.334 L 238.862 320.126 L 220.548 323.324 L 220.548 176.52 C 227.234 175.358 228.978 172.741 229.56 169.253 L 182.466 165.183 L 182.466 329.429 C 172.583 331.173 164.152 332.336 157.757 333.208 L 183.629 381.173 C 187.118 380.301 190.315 377.394 192.059 373.615 C 256.304 345.417 296.421 324.196 322.002 307.917 Z" style="white-space: pre; fill: rgb(51, 51, 51);"/>
</svg>