<?xml version="1.0" encoding="utf-8"?>
<svg viewBox="139.378 101.257 114.827 264.537" width="114.827" height="264.537" xmlns="http://www.w3.org/2000/svg">
  <path d="M 239.379 279.165 L 236.472 279.165 C 231.53 296.317 225.716 314.34 221.937 320.445 C 219.612 323.352 216.705 324.224 214.088 324.224 C 211.181 324.514 207.402 324.514 203.042 324.514 L 189.379 324.514 C 182.983 324.514 180.948 322.48 180.948 316.666 L 180.948 217.537 C 199.263 213.176 220.484 206.2 239.67 196.316 C 247.519 198.932 251.298 198.06 254.205 194.572 L 212.635 159.978 C 203.042 174.513 191.704 189.92 180.948 202.42 L 180.948 114.92 C 188.507 113.757 191.123 110.559 191.414 106.78 L 139.378 101.257 L 139.378 329.747 C 139.378 357.945 147.809 365.794 177.46 365.794 L 198.39 365.794 C 239.379 365.794 253.914 357.073 253.914 340.212 C 253.914 332.945 250.716 327.712 240.833 322.77 L 239.379 279.165 Z" style="white-space: pre; fill: rgb(51, 51, 51);"/>
</svg>