<?xml version="1.0" encoding="utf-8"?>
<svg viewBox="88.375 119.319 129.96 251.165" width="129.96" height="251.165" xmlns="http://www.w3.org/2000/svg">
  <path d="M 108.895 308.377 C 112.179 307.009 115.188 304.546 117.651 300.442 C 155.955 284.026 186.598 267.61 203.014 258.034 L 202.74 255.298 C 175.654 258.308 148.567 261.044 127.774 262.686 C 157.596 244.081 190.702 216.721 207.939 195.927 C 213.411 196.474 216.967 194.559 218.335 191.823 L 172.097 168.02 C 169.361 175.681 164.71 184.983 158.964 194.833 C 143.095 195.38 128.047 195.927 115.462 195.927 C 137.897 183.068 163.889 161.727 178.663 144.217 C 183.862 144.49 139.539 119.319 139.539 119.319 C 134.34 140.934 113.547 180.332 99.046 191.002 C 95.763 193.191 88.649 194.559 88.649 194.559 L 106.159 237.514 C 108.348 236.42 110.263 235.052 112.179 232.863 C 123.943 227.665 134.614 222.466 144.19 217.815 C 130.783 236.694 115.462 253.93 103.423 261.591 C 99.867 264.054 91.385 265.695 91.385 265.695 L 108.895 308.377 Z M 105.612 370.484 C 109.169 369.39 112.179 366.38 113.82 362.55 C 158.143 337.378 187.419 317.132 205.476 302.631 L 204.929 300.169 C 158.417 311.113 108.348 320.689 88.375 323.425 L 105.612 370.484 Z" style="fill: rgb(51, 51, 51); white-space: pre;"/>
</svg>