<?xml version="1.0" encoding="utf-8"?>
<svg viewBox="198.089 121.234 155.405 247.882" width="155.405" height="247.882" xmlns="http://www.w3.org/2000/svg">
  <path d="M 338.719 297.159 L 335.983 297.159 C 329.691 314.122 324.219 326.434 320.662 331.359 C 318.199 334.369 315.737 335.19 311.086 335.463 C 306.435 336.01 297.132 336.01 287.83 336.01 L 256.913 336.01 C 247.063 336.01 244.601 334.369 244.601 329.17 L 244.601 232.316 L 293.028 232.316 L 293.028 257.761 L 299.321 257.761 C 311.633 257.761 330.785 251.468 331.059 249.279 L 331.059 157.35 C 338.446 155.982 342.823 152.698 345.012 149.962 L 307.529 121.234 L 289.745 141.481 L 198.089 141.481 L 200.551 149.142 L 293.028 149.142 L 293.028 224.655 L 248.431 224.655 L 207.118 209.334 L 207.118 337.378 C 207.118 363.37 216.967 369.116 250.62 369.116 L 283.726 369.116 C 338.446 369.116 353.494 363.37 353.494 347.502 C 353.494 340.935 350.484 336.831 339.814 332.727 L 338.719 297.159 Z" style="fill: rgb(51, 51, 51); white-space: pre;"/>
</svg>